<?xml version="1.0" encoding="UTF-8"?>
<svg xmlns="http://www.w3.org/2000/svg" viewBox="0 0 228.93 165.66">
  <defs>
    <style>
      .cls-1 {
        fill: #f7e7d8;
      }

      .cls-1, .cls-2, .cls-3, .cls-4, .cls-5, .cls-6, .cls-7, .cls-8, .cls-9, .cls-10, .cls-11, .cls-12, .cls-13, .cls-14, .cls-15, .cls-16, .cls-17 {
        stroke-width: 0px;
      }

      .cls-2 {
        fill: #d0d2d3;
      }

      .cls-3 {
        fill: #58595b;
      }

      .cls-4 {
        fill: #da1c50;
      }

      .cls-5 {
        fill: #d96327;
      }

      .cls-18 {
        isolation: isolate;
      }

      .cls-6 {
        opacity: .2;
      }

      .cls-7 {
        fill: #242423;
      }

      .cls-8 {
        fill: #df5f26;
      }

      .cls-9 {
        fill: #fff;
      }

      .cls-10 {
        fill: #e97524;
      }

      .cls-11 {
        fill: #f47e2c;
      }

      .cls-12 {
        fill: #231f20;
      }

      .cls-13 {
        fill: #752f30;
      }

      .cls-14 {
        fill: #700;
      }

      .cls-15 {
        fill: #3c7aa4;
        mix-blend-mode: multiply;
      }

      .cls-16 {
        fill: #5a140d;
      }

      .cls-17 {
        fill: #a51217;
      }
    </style>
  </defs>
  <g class="cls-18">
    <g id="Layer_1" data-name="Layer 1">
      <ellipse class="cls-6" cx="114.47" cy="163.22" rx="114.47" ry="2.45"/>
      <g>
        <g>
          <polygon class="cls-10" points="156.1 133.6 151.79 139.36 136.93 139.36 136.93 42.03 150.91 42.03 156.1 45.33 156.1 133.6"/>
          <polygon class="cls-10" points="76.51 133.6 80.82 139.36 95.69 139.36 95.69 42.03 81.71 42.03 76.51 45.33 76.51 133.6"/>
          <rect class="cls-16" x="86.1" y="27.65" width="60.41" height="111.71"/>
          <rect class="cls-9" x="93.66" y="85.38" width="45.31" height="30.61"/>
          <rect class="cls-17" x="93.66" y="115.99" width="45.31" height="3.44"/>
          <g>
            <path class="cls-5" d="M145.18,1.94c11.09-2.02,16.45,6.23,11.63,18.18l-27.51,54.43c-6.74,10.9-17.87,11.45-24.13,1.53l-25.26-44.82c-4.34-8.89,1.41-17.69,12.5-19.71L145.18,1.94Z"/>
            <path class="cls-10" d="M142.37.32c11.02-2.06,16.31,6.15,11.43,18.07l-27.74,54.31c-6.79,10.89-17.86,11.45-24.02,1.59l-24.71-44.51c-4.24-8.83,1.56-17.61,12.58-19.67L142.37.32Z"/>
            <path class="cls-16" d="M113.92,77.65c-3.06.18-6.11-1.78-8.34-5.38l-24.99-44.67c-1.61-3.27-1.58-6.53.03-8.99,1.59-2.47,4.83-4.31,8.91-5.04l53.01-9.49c4.08-.73,7.23.16,8.68,2.43,1.46,2.29,1.27,6.1-.57,10.43l-28.02,54.16c-2.47,3.99-5.65,6.38-8.7,6.56Z"/>
            <path class="cls-13" d="M108.26,73.2l-25.41-44.89c-1.64-3.28-1.64-6.57-.04-9.03,1.58-2.48,4.82-4.31,8.91-5.04l53.19-9.4c1.63-.28,3.06-.25,4.34-.04-1.66-.91-3.95-1.21-6.71-.72l-53.01,9.49c-4.08.73-7.32,2.57-8.91,5.04-1.61,2.46-1.64,5.72-.03,8.99l24.99,44.67c1.88,3.04,4.35,4.82,6.92,5.23-1.56-.92-3.03-2.35-4.24-4.29Z"/>
            <g>
              <g>
                <path class="cls-9" d="M97.02,17.03l-.17-.56c-.02-.12.04-.2.19-.23l5.94-1.01c.11-.02.16,0,.24.05l.92.72c.07.07.1.12.09.22l-.97,15.11c0,.1-.04.16-.13.24l-1.08,1.03c-.1.09-.16.13-.27.14l-6.24.85c-.15.02-.2-.05-.16-.17l.29-.66,1.36-15.73ZM99.34,17.98l-1.04,13.06,2.5-.35.95-13.11-2.41.4Z"/>
                <path class="cls-9" d="M107.99,31.7c.05.12,0,.21-.15.23l-2.68.36c-.16.03-.21-.04-.14-.18l.27-.64.94-15.96-.19-.6c-.05-.12,0-.2.15-.22l5.94-1.01c.11-.02.17,0,.25.06l.94.74c.08.06.1.1.1.21l-.29,7.55c0,.11-.03.16-.12.25l-1.16,1.17.81,6.48.29.89c.06.12-.01.2-.16.23l-2.65.36c-.18.03-.23-.04-.16-.18l.23-.54-.83-6.87-1.23.18-.36,6.91.2.58ZM108.26,22.01l2.47-.39.25-5.55-2.43.41-.29,5.53Z"/>
                <path class="cls-9" d="M117.48,29.79l.22.59c.05.12,0,.21-.15.23l-2.68.37c-.15.02-.2-.05-.14-.19l.26-.65.52-16.19-.21-.61c-.05-.12,0-.2.15-.23l2.56-.44c.14-.03.19.05.13.18l-.24.68-.4,16.25Z"/>
                <path class="cls-9" d="M126.63,12.64l-2.23,16.39.14.41c.04.13-.03.21-.17.23l-2.68.37c-.15.02-.2-.05-.15-.19l.15-.44-1.91-15.62-.39-1.16c-.05-.12,0-.2.14-.23l2.56-.44c.14-.02.2.05.14.19l-.15.47,1,9.88,1.25-10.25-.13-.42c-.06-.13,0-.22.13-.24l2.56-.44c.13-.02.2.05.13.19l-.41,1.31Z"/>
                <path class="cls-9" d="M135.9,27.92c-.02.14-.08.2-.23.22l-7.11.97c-.15.02-.21-.05-.15-.19l.22-.7-.08-16.51-.23-.6c-.06-.12,0-.21.14-.24l6.78-1.15c.13-.02.19.02.23.15l.29,1.88c.04.1-.05.19-.17.2l-4.64.78.07,5.72,1.53-.24.7-.32c.15-.07.24-.04.24.1l.05,2.44c0,.13-.09.2-.23.17l-.72-.1-1.54.24.07,5.71,4.81-.67c.12-.02.2.05.18.16l-.22,1.98Z"/>
              </g>
              <g>
                <path class="cls-9" d="M104.37,34.23c.15-.02.2.03.23.15l.16,1.82c.01.11-.08.19-.2.2l-2.33.3-.97,14.52.21.58c.06.13-.01.2-.17.22l-2.83.29c-.15.01-.21-.06-.14-.19l.29-.63,1.06-14.46-2.36.3c-.12.02-.2-.04-.16-.15l.41-1.87c.04-.14.1-.19.25-.21l6.54-.87Z"/>
                <path class="cls-9" d="M113.49,49.96l.22.6c.06.12,0,.21-.15.22l-2.83.28c-.15.02-.21-.05-.17-.18l.27-.64.31-7.52-2.66,1.69-.29,6.1.22.59c.06.12,0,.2-.17.22l-2.82.28c-.16.02-.21-.05-.18-.18l.29-.64.88-15.98-.21-.61c-.02-.12.04-.21.19-.22l2.7-.36c.15-.03.2.05.14.18l-.27.67-.36,7.46,2.63-1.69.25-6.1-.2-.62c-.03-.13.04-.21.18-.23l2.71-.36c.14-.02.19.05.13.19l-.26.68-.55,16.16Z"/>
                <path class="cls-9" d="M118.87,50.03c.06.12,0,.2-.16.22l-2.82.28c-.16.02-.22-.05-.15-.19l.27-.65.44-16.22-.22-.62c-.05-.12,0-.2.16-.22l6.27-.84c.12-.01.18.01.27.07l1.02.79c.09.06.12.11.11.22l-.05,7.68c0,.1-.03.16-.13.25l-1.18,1.16,1.06,6.63.33.91c.06.13,0,.21-.15.22l-2.8.29c-.18.01-.23-.06-.17-.19l.22-.55-1.1-7.01-1.29.15-.14,7.02.23.61ZM118.83,40.17l2.61-.3.07-5.64-2.56.33-.12,5.61Z"/>
                <path class="cls-9" d="M133.92,30.31c.14-.02.2.05.15.19l-.22.7.3,16.2c0,.11-.03.16-.12.25l-1.06,1.04c-.09.08-.15.12-.27.13l-5.01.51c-.13.01-.18,0-.28-.07l-1.07-.82c-.09-.07-.12-.12-.12-.22l.02-16.04-.22-.63c-.06-.13,0-.21.14-.23l2.7-.36c.15-.02.2.05.15.19l-.22.69.08,15.09,2.66-.28-.18-15.15-.24-.63c-.07-.13,0-.21.15-.23l2.69-.36Z"/>
              </g>
            </g>
          </g>
          <g>
            <path class="cls-14" d="M117.53,99.15c2.6,0,4.71-2.11,4.71-4.71s-2.11-4.72-4.71-4.72-4.71,2.11-4.71,4.72,2.11,4.71,4.71,4.71Z"/>
            <path class="cls-14" d="M132.62,116.52l-9.55-13.09v.05c-1.32-1.68-3.26-2.81-5.54-2.81s-4.32,1.2-5.62,2.93l-.04-.18-9.55,13.09h3.89l4.15-5.6v4.93h14.32v-4.77l4.04,5.43h3.89Z"/>
          </g>
        </g>
        <g>
          <path class="cls-12" d="M77.54,156.11h-33.73s-.75-19.24,16.49-19.24,16.24,15.99,17.24,19.24Z"/>
          <path class="cls-12" d="M178.46,154.36h-33.72s-.75-19.24,16.49-19.24,16.24,15.99,17.24,19.24Z"/>
          <path class="cls-7" d="M74,152.97c0,6.93-5.62,12.55-12.55,12.55s-12.55-5.62-12.55-12.55,5.62-12.55,12.55-12.55,12.55,5.62,12.55,12.55Z"/>
          <path class="cls-3" d="M70.81,152.97c0,5.17-4.19,9.37-9.37,9.37s-9.37-4.19-9.37-9.37,4.19-9.37,9.37-9.37,9.37,4.19,9.37,9.37Z"/>
          <path class="cls-7" d="M174.43,152.97c0,6.93-5.62,12.55-12.55,12.55s-12.55-5.62-12.55-12.55,5.62-12.55,12.55-12.55,12.55,5.62,12.55,12.55Z"/>
          <path class="cls-3" d="M171.24,152.97c0,5.17-4.2,9.37-9.37,9.37s-9.37-4.19-9.37-9.37,4.19-9.37,9.37-9.37,9.37,4.19,9.37,9.37Z"/>
          <path class="cls-10" d="M46.91,155.74v1.69h-10.96c-2.81,0-4.97-2.53-4.97-9.18,0-2.62,1.22-10.02,3-11.9,1.78-1.87,5.43-2.9,9.55-4.03,4.12-1.13,21.64-5.71,23.42-6.28,1.78-.56,17.42-10.02,25.11-13.12,7.68-3.09,14.99-4.59,22.67-4.59h29.7c6.65,0,18.08,1.22,37.38,15.18h7.78c4.97,0,9.18,2.62,9.18,8.24v8.71h1.69c.85,0,1.69.94,1.69,2.16s-.75,2.16-1.59,2.16v5.62c0,1.78.18,4.78-3.19,4.78s-21.27,1.13-21.27,1.13c0,0,.41-18.55-14.68-17.49-16.8,1.19-13.05,18.42-13.05,18.42l-71.32.19h-.95s1.22-18.69-14.94-18.69-14.24,17-14.24,17Z"/>
          <path class="cls-1" d="M107.33,110.46c-1.32-.32-4-.47-5.78-.52-3.14.74-6.28,1.69-9.49,2.98-7.11,2.86-21.01,11.16-24.46,12.83,1.3.07,4.06.21,9.94.5,11.55-9.56,29.79-15.8,29.79-15.8Z"/>
          <path class="cls-7" d="M86.97,123.02s-1.25.68-1.19,1.43c.06.75,1.5.62,2.38.62s61.26-1.13,63.01-1.19c1.75-.06,3.62-.81,4-4.06.37-3.25,1.31-8.05-10.43-8.43-11.75-.38-23.86-.81-29.42,0-5.56.81-17.05,3.56-28.35,11.62Z"/>
          <g>
            <path class="cls-1" d="M153.35,115.01c-1.26-1.45-4.16-2.27-8.65-2.42l-1.61-.05c-5.19-.17-10.49-.34-15.17-.39l-3.9,11.06c13.77-.26,26.41-.5,27.11-.53,1.25-.04,2.55-.43,2.85-3l.03-.3c.19-1.56.38-3.17-.66-4.38Z"/>
            <path class="cls-1" d="M124.93,112.14c-4.31,0-7.41.15-9.43.45-4.44.65-15.96,3.03-27.68,11.29h.35c.73,0,17.01-.31,32.84-.61l3.92-11.13Z"/>
          </g>
          <path class="cls-1" d="M181.74,123.47c-7.33-5.3-13.52-8.75-18.75-11-.8.04-4.06.23-3.95.62.13.43,8.5,5.74,11.37,7.68,2.8,1.88,4.57,3.04,11.33,2.7Z"/>
          <path class="cls-2" d="M165.9,153.11c0,2.22-1.81,4.03-4.03,4.03s-4.03-1.8-4.03-4.03,1.81-4.03,4.03-4.03,4.03,1.8,4.03,4.03Z"/>
          <path class="cls-2" d="M65.47,153.11c0,2.22-1.8,4.03-4.03,4.03s-4.03-1.8-4.03-4.03,1.8-4.03,4.03-4.03,4.03,1.8,4.03,4.03Z"/>
          <path class="cls-11" d="M43.54,132.32c-4.12,1.12-7.77,2.16-9.55,4.03-.28.29-.54.75-.79,1.28h165.57v-5.87c0-.98-.17-1.83-.4-2.62H55.51c-4.93,1.31-9.99,2.65-11.97,3.19Z"/>
          <path class="cls-1" d="M48.31,135h-8.43c-1.54,0-5.51,2.29-6.91,3.12-.44,1.08-.84,2.41-1.15,3.82h12.11c2.68,0,7.37-6.93,4.37-6.93Z"/>
          <path class="cls-17" d="M198.76,131.75c0-1.09-.19-2.03-.49-2.89-1.71-.21-6.51-.76-10-.76-4.31,0,1.32,5.25,5.62,5.25h4.87v-1.59Z"/>
          <path class="cls-15" d="M122.14,124.26s-.41,1.56-1.03,3.9c-.24,1.18-.54,2.55-.85,4.03-.17.73-.34,1.48-.51,2.25l-.26,1.13-.07,1.2c-.12,1.6-.25,3.21-.36,4.72-.1,1.5-.32,2.91-.32,4.1-.14,2.41-.23,4.02-.23,4.02,0,0-.07-1.62-.19-4.04-.09-2.44.2-5.65.36-8.87l.09-1.2.29-1.19c.19-.78.39-1.54.57-2.28.39-1.47.76-2.83,1.07-4.01.83-2.27,1.44-3.77,1.44-3.77Z"/>
        </g>
      </g>
      <g>
        <path class="cls-4" d="M124.87,60.21c-.29-.04-.39,0-.8.06-.19-.02-.96.03-1.33.06-.57.05-.56.09-1.13.14-.05,0-.09,0-.13.01-.2-.01-.32-.04-.68,0-.54.05-.54.03-1.09.08-.48.04-.53.12-.9.17-.16,0-.3.02-.61.04-.35.03-.48.07-.66.11-.37.03-.49.06-.7.08-.35.01-.43-.04-.91,0-.14.01-.25.03-.33.04-.06,0-.14,0-.22.01-.54.05-.55,0-1.09.06-.54.05-.54.06-1.08.11-.05,0-.1.01-.14.01-.13,0-.27,0-.53.03-.57.05-.56.1-1.13.14-.57.05-.57.06-1.13.11h-.08c-.07,0-.14.02-.24.02-.14.01-.25.02-.33.03l-.49.04c-.24.02-.38.04-.5.05-.32.01-.41-.04-.86,0-.39.03-.5.09-.72.14l-.19.02c-.19.02-.31.03-.41.04-.32-.02-.46-.02-.8.07-.48.03-.49-.1-.82.07-.34.18-.32.61.05.7.26.06.72.06.8.04.01.12.03.24.06.36.11.45.25.84.44,1.14.22.33.53.59.87.82.29.19.68.29,1.08.46.32.14.66.33,1.06.48.38.15.77.2,1.15.26.39.07.78.16,1.16.2.39.04.8-.03,1.18.06.38.08.75.24,1.11.43.33.17.64.35.95.66.26.26.49.47.73.85.13-.44.28-.66.48-.97.24-.36.56-.6.88-.82.33-.22.67-.44,1.05-.58.37-.13.77-.16,1.16-.27.38-.1.74-.26,1.11-.4.37-.14.77-.21,1.11-.44.35-.24.66-.47.95-.67.35-.24.66-.48.92-.72.3-.28.58-.56.74-.92.15-.32.12-.73.16-1.19,0-.1.02-.2.03-.3.18,0,.81-.1.97-.24.21-.17.06-.67-.16-.7"/>
        <path class="cls-8" d="M124.69,52.63c-.01-.23-.16-.32-.29-.32-.26,0-.19-.13-.2-.17,0-.22-.11-.33-.3-.36-.25-.04-.49.21-.53.5,0,0-.09.27.04.54-.04.05-.08.1-.12.15-.13.14-.25.32-.45.57-.26-.03-.63-.04-1,.26-.26.22-.61.39-.91.76-.29-.16-.57-.28-.88-.38-.31-.1-.62-.16-.95-.19-.32-.04-.65.04-.98.07-.4.03-.77.08-1.12.22-.36.14-.65.41-.96.63-.31.22-.64.42-.92.69-.28.26-.51.59-.78.86-.23.24-.95.25-1.28.1-.33-.15-.68-.24-1.01-.38-.33-.14-.65-.34-1-.42-.34-.08-.7-.17-1.08-.13-.35.03-.66.22-.98.32-.33.11-.64.23-.93.4-.29.18-.59.36-.84.6-.25.24-.5.5-.69.79-.19.29-.32.63-.45.96-.13.33-.28.66-.33,1.02-.05.35-.01.76,0,1.13.09.1.25.08.4.09.49.13.52-.06,1.02-.11s.5-.09,1-.14c.5-.04.51.04,1.01,0s.5-.12,1-.16.51,0,1.01-.04.5-.09,1.01-.13l1.01-.09c.51-.04.51,0,1.01-.04s.5-.06,1.01-.1.51-.02,1.01-.06.5-.1,1-.15c.5-.04.51-.03,1.01-.08.5-.04.5-.06,1.01-.11.5-.04.5-.03,1.01-.08s.51.05,1.02,0c.51-.04.5-.07,1.01-.11.51-.04.5-.1.99-.2.07-.03.25-.07.32-.15.09-.09.11-.17.1-.28-.03-.35-.11-.71-.2-1.04-.09-.34-.34-.61-.49-.92-.16-.31-.28-.64-.49-.91.28-.36.54-.68.69-.98.23-.48.21-.9.12-1.18.09-.11.22-.24.31-.36.08-.1.15-.18.21-.26.14.02.39-.06.39-.06.26-.07.42-.31.4-.56"/>
      </g>
    </g>
  </g>
</svg>